<svg xmlns="http://www.w3.org/2000/svg" viewBox="0 0 400 400">
  <circle cx="200" cy="200" r="190" fill="#E8B564"/>
  <circle cx="200" cy="200" r="190" fill="none" stroke="#C98A3B" stroke-width="6"/>
  <circle cx="200" cy="200" r="178" fill="#C0392B"/>
  <circle cx="200" cy="200" r="170" fill="#FDBA5C"/><ellipse cx="193.07217121847944" cy="198.86940032679212" rx="22" ry="15.399999999999999" fill="#7B4B34" stroke="#5A3624" stroke-width="1.5"/><ellipse cx="166.17018580911196" cy="144.2683711073082" rx="22" ry="15.399999999999999" fill="#7B4B34" stroke="#5A3624" stroke-width="1.5"/><ellipse cx="162.77073051379458" cy="189.91080632554764" rx="22" ry="15.399999999999999" fill="#7B4B34" stroke="#5A3624" stroke-width="1.5"/><ellipse cx="339.0925638752989" cy="203.96689599747984" rx="22" ry="15.399999999999999" fill="#7B4B34" stroke="#5A3624" stroke-width="1.5"/><ellipse cx="265.3216726691322" cy="187.77541733219294" rx="22" ry="15.399999999999999" fill="#7B4B34" stroke="#5A3624" stroke-width="1.5"/><ellipse cx="282.1014480634356" cy="163.85517111955625" rx="22" ry="15.399999999999999" fill="#7B4B34" stroke="#5A3624" stroke-width="1.5"/><circle cx="232.5945663866769" cy="204.6079380871405" r="18" fill="#A5432F" stroke="#7A2E1F" stroke-width="2"/>
  <circle cx="232.5945663866769" cy="204.6079380871405" r="5.3999999999999995" fill="#F2D9C4"/><circle cx="77.15183187579736" cy="237.374452020861" r="18" fill="#A5432F" stroke="#7A2E1F" stroke-width="2"/>
  <circle cx="77.15183187579736" cy="237.374452020861" r="5.3999999999999995" fill="#F2D9C4"/><circle cx="131.74502343736594" cy="126.1401998218964" r="18" fill="#A5432F" stroke="#7A2E1F" stroke-width="2"/>
  <circle cx="131.74502343736594" cy="126.1401998218964" r="5.3999999999999995" fill="#F2D9C4"/><circle cx="146.0978346397018" cy="235.81912264713606" r="18" fill="#A5432F" stroke="#7A2E1F" stroke-width="2"/>
  <circle cx="146.0978346397018" cy="235.81912264713606" r="5.3999999999999995" fill="#F2D9C4"/><circle cx="340.55726703650055" cy="189.27534578499484" r="18" fill="#A5432F" stroke="#7A2E1F" stroke-width="2"/>
  <circle cx="340.55726703650055" cy="189.27534578499484" r="5.3999999999999995" fill="#F2D9C4"/><circle cx="183.1012935877435" cy="339.9303746827363" r="18" fill="#A5432F" stroke="#7A2E1F" stroke-width="2"/>
  <circle cx="183.1012935877435" cy="339.9303746827363" r="5.3999999999999995" fill="#F2D9C4"/></svg>